<svg width="128" height="34" viewBox="0 0 128 34" fill="none" xmlns="http://www.w3.org/2000/svg">
<path fill-rule="evenodd" clip-rule="evenodd" d="M30.5 1H1.5C1.10218 1 0.720644 1.15804 0.43934 1.43934C0.158035 1.72064 0 2.10218 0 2.5L0 31.5C0 31.8978 0.158035 32.2794 0.43934 32.5607C0.720644 32.842 1.10218 33 1.5 33H30.5C30.8978 33 31.2794 32.842 31.5607 32.5607C31.842 32.2794 32 31.8978 32 31.5V2.5C32 2.10218 31.842 1.72064 31.5607 1.43934C31.2794 1.15804 30.8978 1 30.5 1ZM29 30H3V4H29V30Z" fill="white"/>
<path d="M23 27C24.6569 27 26 25.6569 26 24C26 22.3431 24.6569 21 23 21C21.3431 21 20 22.3431 20 24C20 25.6569 21.3431 27 23 27Z" fill="white"/>
<path fill-rule="evenodd" clip-rule="evenodd" d="M12 7.35484V8.63431C11.9997 8.68891 11.9869 8.74271 11.9626 8.79163C11.9384 8.84056 11.9033 8.88332 11.86 8.91669C11.1211 9.4863 10.4243 10.1085 9.77504 10.7784C9.10499 11.4275 8.48254 12.1241 7.91254 12.8625C7.87981 12.9057 7.83745 12.9406 7.78883 12.9644C7.74022 12.9883 7.68669 13.0005 7.63254 13H6.35254C6.25905 13 6.16939 12.9628 6.10328 12.8968C6.03717 12.8307 6.00004 12.7411 6.00004 12.6476V7.35484C5.99937 7.30827 6.00801 7.26203 6.02546 7.21884C6.04291 7.17565 6.06881 7.13638 6.10164 7.10333C6.13447 7.07028 6.17358 7.04411 6.21666 7.02637C6.25974 7.00862 6.30594 6.99966 6.35254 6.99999H11.6475C11.694 6.99999 11.7401 7.00919 11.783 7.02705C11.8259 7.04492 11.8649 7.07109 11.8977 7.10408C11.9304 7.13706 11.9564 7.1762 11.9739 7.21924C11.9915 7.26228 12.0004 7.30836 12 7.35484Z" fill="white"/>
<path d="M26 7.39V12.6025C25.9994 12.7069 25.958 12.8069 25.8847 12.8811C25.8113 12.9554 25.7119 12.998 25.6075 13C22.4075 13.1275 19.065 14.925 16.495 17.5C13.925 20.075 12.125 23.4075 12 26.61C11.9968 26.7141 11.9533 26.813 11.8787 26.8857C11.8041 26.9584 11.7042 26.9994 11.6 27H6.38753C6.33634 27.0003 6.28559 26.9905 6.23827 26.9709C6.19094 26.9514 6.14797 26.9227 6.11189 26.8864C6.07581 26.8501 6.04733 26.8069 6.02812 26.7594C6.00892 26.712 5.99937 26.6612 6.00003 26.61C6.12753 21.75 8.59253 16.9025 12.25 13.25C15.9075 9.5975 20.75 7.13 25.61 7C25.6615 6.99898 25.7127 7.00837 25.7605 7.02761C25.8083 7.04685 25.8517 7.07554 25.8881 7.11196C25.9245 7.14838 25.9532 7.19178 25.9724 7.23955C25.9917 7.28733 26.0011 7.3385 26 7.39Z" fill="white"/>
<path d="M78 21H128V24H78V21Z" fill="white"/>
<path d="M44 21H59V24H44V21Z" fill="white"/>
<path d="M128 15.0149C127.928 10.1252 120.66 11.6068 120.66 9.518C120.66 8.88335 121.188 8.51855 122.16 8.51855C123.315 8.51855 124.012 9.10573 124.132 9.99773H127.935C127.662 7.40167 125.75 5.52022 122.272 5.52022C118.757 5.52022 116.808 7.3542 116.808 9.58796C116.808 14.4053 124.125 12.8786 124.125 14.9925C124.125 15.5796 123.572 16.0519 122.512 16.0519C121.38 16.0519 120.54 15.4397 120.442 14.5227H116.375C116.567 17.0613 118.975 19.0202 122.56 19.0202C125.93 19.0127 128 17.2962 128 15.0149Z" fill="white"/>
<path d="M104.625 7.2725V0.0625H100.5V19H104.625V16.8444C105.062 17.5326 105.669 18.0979 106.388 18.4862C107.107 18.8745 107.914 19.0728 108.732 19.0621C112.02 19.0621 114.75 16.1905 114.75 11.9938C114.75 7.79709 112.045 5.19652 108.732 5.19652C106.812 5.19652 105.37 6.07912 104.625 7.2725ZM110.46 12.0236C110.46 14.1469 109.067 15.3402 107.507 15.3402C105.947 15.3402 104.58 14.1717 104.58 12.046C104.58 9.92031 105.972 8.63743 107.5 8.63743C109.028 8.63743 110.46 9.89793 110.46 12.0236Z" fill="white"/>
<path d="M83.75 12.2333C83.75 16.4509 86.365 19.0612 89.63 19.0612C91.63 19.0612 93.13 18.2227 93.88 17.0498V19H98V5.5H93.875V7.46677C93.155 6.29385 91.645 5.38297 89.655 5.38297C86.365 5.38297 83.75 8.0158 83.75 12.2333ZM93.7825 12.2583C93.7825 14.3895 92.415 15.5649 90.855 15.5649C89.295 15.5649 87.925 14.3671 87.925 12.2333C87.925 10.0996 89.3175 8.83435 90.855 8.83435C92.3925 8.83435 93.7825 10.1271 93.7825 12.2583Z" fill="white"/>
<path d="M78 19H82V0H78V19Z" fill="white"/>
<path d="M61 11.5322C61 15.7658 63.593 18.0493 66.8535 18.0493C68.8039 18.0493 70.2992 17.1094 71.0368 15.9313V17.3274C71.0368 19.5834 69.7316 20.408 68.1863 20.408C66.781 20.408 65.7233 19.7463 65.4608 18.7361H61.3726C61.7276 21.9371 64.4256 24 68.3738 24C72.9646 24 75 21.4182 75 17.8313V5.43865H71.0368V7.09301C70.3242 5.88984 68.8039 5 66.8535 5C63.593 5 61 7.29604 61 11.5322ZM70.9443 11.9809C70.9443 14.1215 69.589 15.3397 68.0413 15.3397C66.4935 15.3397 65.1407 14.0864 65.1407 11.9558C65.1407 9.8252 66.5185 8.58443 68.0413 8.58443C69.564 8.58443 70.9443 9.83773 70.9443 11.9809Z" fill="white"/>
<path d="M59 1.99646C59 2.52596 58.7893 3.03377 58.4142 3.40818C58.0391 3.78259 57.5304 3.99293 57 3.99293C56.4696 3.99293 55.9609 3.78259 55.5858 3.40818C55.2107 3.03377 55 2.52596 55 1.99646C55 1.46697 55.2107 0.959161 55.5858 0.584751C55.9609 0.210341 56.4696 0 57 0C57.5304 0 58.0391 0.210341 58.4142 0.584751C58.7893 0.959161 59 1.46697 59 1.99646Z" fill="white"/>
<path d="M55 19H59V5.5H55V19Z" fill="white"/>
<path d="M48.1212 12.82C48.1212 10.515 49.4091 9.845 51.3821 9.845H52.5V5.5C50.6455 5.5 49.2133 6.46 48.25 7.875V5.5H44V19H48.1212V12.82Z" fill="white"/>
<g clip-path="url(#clip0_3498_14053)">
<path d="M59.07 32L59.785 28.565H61.3C61.955 28.565 62.395 28.96 62.395 29.54C62.395 30.3 61.705 30.885 60.855 30.885H60.04L59.805 32H59.07ZM60.18 30.21H60.915C61.3 30.21 61.65 29.91 61.65 29.59C61.65 29.38 61.455 29.24 61.15 29.24H60.385L60.18 30.21ZM63.8408 32.06C63.1708 32.06 62.6658 31.55 62.6658 30.92C62.6658 30.06 63.4758 29.355 64.3308 29.355C65.0008 29.355 65.5108 29.865 65.5108 30.495C65.5108 31.35 64.6958 32.06 63.8408 32.06ZM63.8958 31.445C64.3808 31.445 64.8258 30.99 64.8258 30.515C64.8258 30.21 64.5858 29.97 64.2758 29.97C63.7908 29.97 63.3508 30.42 63.3508 30.9C63.3508 31.205 63.5908 31.445 63.8958 31.445ZM66.4477 32L66.1077 29.415H66.8077L66.9577 31.025L67.8077 29.415H68.4127L68.5827 31.025L69.4077 29.415H70.1427L68.7227 32H68.0677L67.9327 30.375L67.1027 32H66.4477ZM71.4947 30.945H70.8697V30.97C70.8697 31.275 71.0297 31.415 71.3397 31.415C71.5847 31.415 71.8447 31.32 72.0397 31.16L72.4397 31.68C72.1647 31.92 71.7497 32.06 71.3247 32.06C70.6347 32.06 70.1897 31.62 70.1897 30.975C70.1897 30.08 70.9197 29.355 71.7797 29.355C72.3497 29.355 72.7547 29.645 72.7547 30.06C72.7547 30.635 72.2847 30.965 71.4947 30.945ZM71.7497 29.995C71.4197 29.995 71.1597 30.16 71.0097 30.42H71.5897C71.8747 30.42 72.0397 30.335 72.0397 30.195C72.0397 30.08 71.9197 29.995 71.7497 29.995ZM74.2771 29.86C74.5021 29.545 74.8471 29.355 75.2371 29.355L75.1571 29.97C74.6371 29.97 74.2121 30.285 74.0921 30.735L73.8271 32H73.0971L73.6371 29.415H74.3671L74.2771 29.86ZM76.8752 30.945H76.2502V30.97C76.2502 31.275 76.4102 31.415 76.7202 31.415C76.9652 31.415 77.2252 31.32 77.4202 31.16L77.8202 31.68C77.5452 31.92 77.1302 32.06 76.7052 32.06C76.0152 32.06 75.5702 31.62 75.5702 30.975C75.5702 30.08 76.3002 29.355 77.1602 29.355C77.7302 29.355 78.1352 29.645 78.1352 30.06C78.1352 30.635 77.6652 30.965 76.8752 30.945ZM77.1302 29.995C76.8002 29.995 76.5402 30.16 76.3902 30.42H76.9702C77.2552 30.42 77.4202 30.335 77.4202 30.195C77.4202 30.08 77.3002 29.995 77.1302 29.995ZM81.1425 28.505H81.8725L81.1475 32H80.4175L80.4875 31.665C80.2425 31.91 79.9275 32.06 79.5775 32.06C79.0025 32.06 78.5975 31.615 78.5975 31.01C78.5975 30.14 79.2375 29.355 80.0675 29.355C80.4225 29.355 80.7125 29.54 80.8675 29.83L81.1425 28.505ZM79.8175 31.445C80.2225 31.445 80.5675 31.125 80.6825 30.73L80.7075 30.595C80.7125 30.555 80.7175 30.51 80.7175 30.47C80.7175 30.18 80.4975 29.97 80.1975 29.97C79.7125 29.97 79.3075 30.42 79.3075 30.94C79.3075 31.23 79.5175 31.445 79.8175 31.445ZM85.6946 29.355C86.2696 29.355 86.6746 29.8 86.6746 30.4C86.6746 31.275 86.0346 32.06 85.2046 32.06C84.8496 32.06 84.5596 31.875 84.4046 31.585L84.3196 32H83.5896L84.3146 28.505H85.0446L84.7846 29.75C85.0296 29.505 85.3446 29.355 85.6946 29.355ZM85.0746 31.445C85.5596 31.445 85.9646 30.985 85.9646 30.475C85.9646 30.185 85.7546 29.97 85.4596 29.97C85.0596 29.97 84.7146 30.28 84.5946 30.665L84.5596 30.835C84.5546 30.875 84.5546 30.91 84.5546 30.945C84.5546 31.235 84.7746 31.445 85.0746 31.445ZM87.5251 32.9C87.3051 32.9 87.0551 32.825 86.8951 32.725L87.1101 32.255C87.2151 32.32 87.3301 32.355 87.4151 32.355C87.5501 32.355 87.7051 32.285 87.7751 32.185L87.9151 32.025L87.3901 29.415H88.1301L88.4251 31.23L89.4551 29.415H90.2151L88.5851 32.155C88.2851 32.665 87.9151 32.9 87.5251 32.9Z" fill="white"/>
<path d="M93.328 33.5L93.32 32.34L95.928 29.388H93.384V28.004H98.056V29.164L95.464 32.116H98.096V33.5H93.328ZM99.0704 33.5V28.004H100.622V33.5H99.0704ZM103.321 32.116H105.881V33.5H101.769V28.004H103.321V32.116ZM106.734 33.5V28.004H108.286V33.5H106.734ZM112.217 33.596C110.593 33.596 109.225 32.292 109.225 30.748C109.225 29.204 110.593 27.908 112.217 27.908C113.097 27.908 113.897 28.284 114.449 28.876L113.305 29.876C113.049 29.54 112.649 29.316 112.217 29.316C111.465 29.316 110.825 29.972 110.825 30.748C110.825 31.532 111.465 32.188 112.217 32.188C112.657 32.188 113.049 31.964 113.313 31.628L114.449 32.62C113.897 33.22 113.097 33.596 112.217 33.596ZM117.908 33.596C116.284 33.596 114.916 32.292 114.916 30.748C114.916 29.204 116.284 27.908 117.908 27.908C119.532 27.908 120.9 29.204 120.9 30.748C120.9 32.292 119.532 33.596 117.908 33.596ZM117.908 32.188C118.66 32.188 119.3 31.532 119.3 30.748C119.3 29.972 118.66 29.316 117.908 29.316C117.156 29.316 116.516 29.972 116.516 30.748C116.516 31.532 117.156 32.188 117.908 32.188ZM121.807 33.5V28.004H123.359L125.503 30.948V28.004H127.055V33.5H125.503L123.359 30.556V33.5H121.807Z" fill="white"/>
</g>
<defs>
<clipPath id="clip0_3498_14053">
<rect width="84" height="6" fill="white" transform="translate(44 28)"/>
</clipPath>
</defs>
</svg>
